<svg id="visual" viewBox="0 0 960 540" width="960" height="540" xmlns="http://www.w3.org/2000/svg" xmlns:xlink="http://www.w3.org/1999/xlink" version="1.1"><rect x="0" y="0" width="960" height="540" fill="#000000"></rect><defs><linearGradient id="grad1_0" x1="43.8%" y1="100%" x2="100%" y2="0%"><stop offset="14.444444444444446%" stop-color="#000000" stop-opacity="1"></stop><stop offset="85.55555555555554%" stop-color="#000000" stop-opacity="1"></stop></linearGradient></defs><defs><linearGradient id="grad2_0" x1="0%" y1="100%" x2="56.3%" y2="0%"><stop offset="14.444444444444446%" stop-color="#000000" stop-opacity="1"></stop><stop offset="85.55555555555554%" stop-color="#000000" stop-opacity="1"></stop></linearGradient></defs><g transform="translate(960, 540)"><path d="M-378 0C-383.8 -37.7 -389.5 -75.4 -365.1 -97.8C-340.7 -120.3 -286.2 -127.6 -265 -153C-243.8 -178.4 -255.9 -222.1 -237.6 -237.6C-219.3 -253.1 -170.6 -240.5 -140 -242.5C-109.4 -244.4 -96.9 -260.9 -76.6 -285.9C-56.3 -310.9 -28.1 -344.5 0 -378L0 0Z" fill="#94928e"></path></g><g transform="translate(0, 0)"><path d="M378 0C347 26.6 316.1 53.1 305.2 81.8C294.4 110.5 303.7 141.3 303.1 175C302.6 208.7 292.2 245.3 267.3 267.3C242.4 289.3 202.8 296.7 167.5 290.1C132.2 283.5 101 263 73.8 275.3C46.5 287.6 23.3 332.8 0 378L0 0Z" fill="#94928e"></path></g></svg>